<svg id="svg" version="1.1" xmlns="http://www.w3.org/2000/svg" xmlns:xlink="http://www.w3.org/1999/xlink" width="400" height="600" viewBox="0, 0, 400,600"><g id="svgg"><path id="path0" d="M142.753 56.017 C 134.359 58.646,128.989 65.660,127.534 75.898 C 124.632 96.311,131.924 111.331,145.510 112.926 C 156.409 114.206,163.994 110.728,167.933 102.646 C 171.882 94.543,171.777 74.355,167.744 66.104 C 163.703 57.840,152.007 53.118,142.753 56.017 M107.812 56.576 C 107.072 56.823,107.297 111.587,108.040 111.872 C 108.380 112.003,111.456 112.109,114.876 112.109 L 121.094 112.109 121.094 84.593 C 121.094 66.845,120.956 56.992,120.707 56.838 C 120.303 56.589,108.494 56.348,107.812 56.576 M260.588 56.641 L 252.622 56.836 250.771 63.477 C 249.754 67.129,247.850 73.984,246.541 78.711 C 245.232 83.438,242.770 92.314,241.070 98.438 C 239.370 104.561,237.859 110.132,237.713 110.818 L 237.447 112.066 243.969 111.990 L 250.490 111.914 251.401 108.398 C 251.902 106.465,252.557 104.180,252.855 103.320 L 253.399 101.758 260.753 101.758 L 268.108 101.758 268.456 102.930 C 268.648 103.574,269.275 105.859,269.851 108.008 L 270.898 111.914 277.441 112.021 C 285.343 112.151,284.884 113.704,281.034 99.864 C 279.412 94.031,276.868 84.775,275.382 79.297 C 270.538 61.444,269.262 56.995,268.905 56.718 C 268.713 56.568,264.970 56.533,260.588 56.641 M333.383 56.738 C 333.280 57.007,333.242 69.443,333.297 84.375 L 333.398 111.523 340.137 111.630 L 346.875 111.737 346.875 83.994 L 346.875 56.250 340.222 56.250 C 335.260 56.250,333.522 56.374,333.383 56.738 M37.500 84.138 C 37.500 108.851,37.563 111.659,38.118 111.872 C 38.458 112.003,41.534 112.109,44.954 112.109 L 51.172 112.109 51.172 84.375 L 51.172 56.641 44.336 56.641 L 37.500 56.641 37.500 84.138 M58.594 83.906 C 58.594 104.592,58.707 111.285,59.062 111.641 C 59.646 112.224,76.160 112.282,81.500 111.720 C 94.616 110.338,100.254 102.722,101.039 85.328 C 102.041 63.141,95.059 56.644,70.215 56.642 L 58.594 56.641 58.594 83.906 M172.656 61.836 C 172.656 68.364,172.236 67.969,179.180 67.969 L 184.766 67.969 184.766 89.570 C 184.766 105.851,184.881 111.287,185.234 111.641 C 185.562 111.968,187.682 112.109,192.266 112.109 L 198.828 112.109 198.828 90.050 L 198.828 67.990 204.537 67.882 L 210.246 67.773 210.181 62.773 C 210.146 60.023,210.019 57.518,209.899 57.207 C 209.714 56.723,206.974 56.641,191.169 56.641 L 172.656 56.641 172.656 61.836 M287.891 84.180 L 287.891 111.719 294.531 111.719 L 301.172 111.719 301.172 101.741 L 301.172 91.764 304.131 91.878 L 307.089 91.992 310.974 101.550 C 313.110 106.807,315.000 111.250,315.173 111.423 C 315.346 111.596,318.501 111.690,322.184 111.631 L 328.881 111.523 325.934 104.688 C 319.977 90.871,319.295 88.972,320.119 88.502 C 328.392 83.777,329.738 68.389,322.510 61.162 C 318.644 57.295,315.304 56.641,299.437 56.641 L 287.891 56.641 287.891 84.180 M151.628 67.590 C 155.536 68.675,156.685 72.019,156.932 83.030 C 157.271 98.172,155.655 101.914,148.962 101.488 C 142.941 101.105,141.609 97.530,141.888 82.510 C 142.139 68.936,144.339 65.565,151.628 67.590 M310.422 68.205 C 312.300 69.607,312.946 71.147,312.937 74.203 C 312.919 79.611,311.094 81.226,304.980 81.241 L 301.563 81.250 301.563 74.182 L 301.563 67.114 305.441 67.249 C 308.641 67.359,309.513 67.527,310.422 68.205 M81.933 68.694 C 85.660 70.609,86.509 73.441,86.517 83.984 C 86.528 97.553,84.435 100.768,75.586 100.778 L 72.070 100.781 72.176 84.129 L 72.282 67.476 76.278 67.659 C 79.363 67.800,80.652 68.036,81.933 68.694 M262.702 81.152 C 263.708 85.396,264.621 89.263,264.730 89.746 C 264.927 90.617,264.888 90.625,260.589 90.625 C 258.203 90.625,256.247 90.493,256.244 90.332 C 256.228 89.530,260.388 73.442,260.612 73.440 C 260.755 73.439,261.696 76.909,262.702 81.152 M210.547 104.841 C 210.547 112.137,210.329 111.719,214.121 111.719 C 216.365 111.719,216.448 111.754,216.190 112.598 C 215.257 115.652,213.876 117.316,211.851 117.824 C 210.680 118.118,210.433 122.878,211.566 123.312 C 214.187 124.319,219.888 120.027,221.259 116.016 C 222.192 113.286,222.670 99.982,221.870 99.018 C 221.487 98.556,220.285 98.438,215.968 98.438 L 210.547 98.438 210.547 104.841 " stroke="none" fill="#f3ebd5" fill-rule="evenodd"></path><path id="path1" d="M0.000 300.000 L 0.000 600.000 200.000 600.000 L 400.000 600.000 400.000 300.000 L 400.000 0.000 200.000 0.000 L 0.000 0.000 0.000 300.000 M151.371 55.072 C 151.223 55.311,151.587 55.366,152.328 55.218 C 153.633 54.957,157.133 55.769,156.828 56.262 C 156.724 56.430,157.019 56.469,157.482 56.347 C 158.110 56.183,158.245 56.258,158.009 56.639 C 157.803 56.973,157.844 57.058,158.128 56.882 C 160.113 55.656,169.744 65.263,168.518 67.247 C 168.351 67.517,168.409 67.593,168.662 67.437 C 169.173 67.121,169.696 68.559,169.301 69.197 C 169.135 69.465,169.189 69.547,169.432 69.397 C 169.945 69.080,170.862 72.693,170.607 74.027 C 170.504 74.566,170.585 74.878,170.795 74.748 C 171.018 74.610,171.112 75.532,171.031 77.067 C 170.956 78.521,171.050 79.521,171.251 79.396 C 171.460 79.267,171.515 82.198,171.386 86.549 C 171.266 90.603,171.011 93.973,170.820 94.037 C 170.628 94.101,170.545 94.789,170.636 95.567 C 170.737 96.431,170.652 96.889,170.418 96.745 C 170.188 96.603,170.113 96.917,170.230 97.531 C 170.377 98.300,170.300 98.476,169.918 98.240 C 169.580 98.031,169.505 98.080,169.695 98.387 C 170.109 99.057,169.554 101.232,169.048 100.920 C 168.810 100.773,168.742 100.843,168.890 101.082 C 169.247 101.660,168.340 103.550,167.851 103.248 C 167.627 103.109,167.578 103.199,167.737 103.456 C 168.102 104.048,165.640 107.471,165.079 107.152 C 164.842 107.016,164.782 107.053,164.945 107.233 C 165.338 107.666,163.671 109.421,163.164 109.107 C 162.947 108.973,162.882 109.045,163.019 109.267 C 163.342 109.789,160.266 111.833,159.692 111.478 C 159.432 111.317,159.363 111.383,159.522 111.640 C 159.841 112.157,156.847 113.064,156.181 112.652 C 155.895 112.476,155.848 112.556,156.048 112.879 C 156.283 113.259,156.023 113.340,154.964 113.217 C 154.197 113.127,153.644 113.172,153.733 113.317 C 153.822 113.462,152.052 113.585,149.798 113.591 C 147.545 113.596,145.772 113.485,145.860 113.344 C 145.948 113.202,145.223 113.149,144.249 113.227 C 142.896 113.335,142.551 113.251,142.784 112.874 C 142.978 112.559,142.932 112.477,142.656 112.647 C 142.028 113.035,140.193 112.493,140.493 112.007 C 140.633 111.781,140.560 111.713,140.330 111.855 C 139.811 112.176,138.609 111.746,138.865 111.331 C 138.969 111.163,138.748 111.050,138.375 111.079 C 137.958 111.112,137.746 110.906,137.826 110.547 C 137.897 110.225,137.830 110.087,137.677 110.240 C 137.254 110.662,135.876 109.790,136.182 109.295 C 136.329 109.058,136.275 108.971,136.064 109.102 C 135.081 109.709,128.996 101.739,129.480 100.478 C 129.589 100.193,129.517 100.059,129.321 100.181 C 128.856 100.468,128.379 98.974,128.746 98.381 C 128.914 98.109,128.857 98.031,128.605 98.187 C 128.096 98.501,127.149 94.381,127.573 93.695 C 127.759 93.394,127.685 93.344,127.353 93.549 C 126.959 93.793,126.889 93.345,127.025 91.457 C 127.130 90.007,127.062 89.250,126.854 89.547 C 126.284 90.360,126.847 75.082,127.476 72.656 C 128.271 69.595,129.479 66.718,129.825 67.064 C 129.987 67.226,129.992 67.028,129.837 66.623 C 129.625 66.072,129.684 65.968,130.072 66.207 C 130.415 66.419,130.496 66.376,130.313 66.079 C 129.651 65.009,136.547 57.513,137.763 57.980 C 138.070 58.098,138.232 58.049,138.123 57.872 C 137.850 57.430,140.576 56.174,141.103 56.499 C 141.341 56.646,141.416 56.582,141.274 56.352 C 140.974 55.867,142.809 55.324,143.438 55.712 C 143.717 55.885,143.759 55.800,143.557 55.472 C 143.310 55.072,143.630 55.007,145.052 55.167 C 146.047 55.279,146.766 55.217,146.650 55.029 C 146.533 54.841,147.602 54.688,149.023 54.688 C 150.621 54.688,151.518 54.834,151.371 55.072 M51.007 56.420 C 51.486 56.899,51.553 61.035,51.467 84.643 L 51.367 112.305 44.756 112.412 C 41.120 112.471,37.995 112.370,37.812 112.187 C 37.629 112.004,37.443 99.387,37.399 84.150 L 37.318 56.445 37.112 83.789 L 36.906 111.133 36.812 83.965 C 36.741 63.250,36.830 56.686,37.188 56.328 C 37.920 55.596,50.265 55.678,51.007 56.420 M84.073 56.629 C 85.303 56.908,86.226 57.271,86.123 57.438 C 86.020 57.604,86.276 57.651,86.690 57.543 C 88.764 57.000,98.280 63.852,97.448 65.289 C 97.279 65.581,97.285 65.690,97.461 65.530 C 97.905 65.128,98.938 66.693,98.595 67.249 C 98.431 67.515,98.488 67.593,98.735 67.440 C 99.255 67.119,100.567 70.883,100.163 71.536 C 99.991 71.814,100.047 71.892,100.305 71.732 C 100.793 71.431,101.411 74.688,100.994 75.363 C 100.851 75.593,100.921 75.781,101.149 75.781 C 101.424 75.781,101.563 78.073,101.563 82.640 C 101.563 86.413,101.412 89.406,101.228 89.293 C 101.044 89.179,100.977 89.520,101.078 90.049 C 101.326 91.343,100.803 95.372,100.418 95.134 C 100.250 95.030,100.201 95.406,100.308 95.968 C 100.456 96.738,100.378 96.913,99.996 96.677 C 99.665 96.473,99.584 96.517,99.762 96.806 C 100.134 97.407,99.275 100.471,98.814 100.187 C 98.606 100.058,98.558 100.250,98.704 100.630 C 98.877 101.081,98.813 101.209,98.508 101.020 C 98.203 100.832,98.140 100.959,98.313 101.411 C 98.501 101.902,98.432 101.996,98.053 101.762 C 97.709 101.549,97.629 101.593,97.814 101.892 C 98.120 102.387,97.157 104.018,96.742 103.708 C 96.600 103.602,96.567 103.628,96.668 103.765 C 96.985 104.193,95.275 106.273,94.832 105.999 C 94.600 105.856,94.520 105.916,94.655 106.134 C 95.172 106.970,90.502 110.043,86.719 111.357 C 83.142 112.599,59.839 113.041,58.568 111.891 C 57.683 111.090,57.346 57.031,58.226 57.031 C 58.454 57.031,58.532 56.857,58.401 56.645 C 58.259 56.416,58.435 56.363,58.833 56.516 C 59.310 56.699,59.415 56.631,59.199 56.281 C 58.773 55.593,80.858 55.902,84.073 56.629 M121.049 56.391 C 121.369 56.777,121.462 64.482,121.389 84.614 L 121.289 112.305 114.690 112.412 C 105.523 112.561,106.622 116.485,106.734 84.021 L 106.828 56.836 107.029 83.984 L 107.229 111.133 107.423 83.729 C 107.539 67.433,107.474 56.413,107.264 56.543 C 107.070 56.663,107.036 56.558,107.189 56.310 C 107.621 55.612,120.464 55.687,121.049 56.391 M210.159 56.448 C 210.471 56.824,210.574 57.693,210.444 58.845 C 210.316 59.985,210.370 60.452,210.591 60.111 C 210.807 59.778,210.904 61.223,210.842 63.867 L 210.742 68.164 204.984 68.272 L 199.225 68.380 199.124 90.342 L 199.023 112.305 192.239 112.412 C 187.566 112.486,185.286 112.379,184.915 112.071 C 184.468 111.700,184.375 107.982,184.375 90.414 C 184.375 78.749,184.285 68.970,184.176 68.684 C 184.021 68.281,182.777 68.182,178.626 68.243 C 175.273 68.292,173.088 68.165,172.771 67.902 C 172.140 67.378,172.026 56.056,172.656 56.445 C 172.871 56.578,173.047 56.501,173.047 56.273 C 173.047 55.540,209.548 55.712,210.159 56.448 M269.238 56.543 C 269.185 56.812,269.335 57.031,269.573 57.031 C 269.811 57.031,269.904 57.295,269.781 57.617 C 269.657 57.939,269.747 58.203,269.980 58.203 C 270.213 58.203,270.312 58.555,270.199 58.985 C 270.087 59.415,270.123 59.687,270.280 59.590 C 270.693 59.335,271.603 63.164,271.261 63.717 C 271.087 63.999,271.139 64.081,271.392 63.924 C 271.856 63.638,272.469 65.761,272.097 66.363 C 271.972 66.565,272.057 66.792,272.284 66.868 C 272.808 67.043,273.542 70.219,273.189 70.789 C 273.045 71.023,273.098 71.108,273.308 70.978 C 273.788 70.682,274.777 74.413,274.386 75.045 C 274.216 75.320,274.264 75.409,274.501 75.262 C 274.941 74.990,275.529 77.195,275.171 77.774 C 275.051 77.967,275.161 78.125,275.413 78.125 C 275.680 78.125,275.787 78.452,275.668 78.907 C 275.541 79.394,275.618 79.593,275.874 79.435 C 276.138 79.272,276.215 79.547,276.090 80.204 C 275.982 80.766,276.030 81.142,276.197 81.039 C 276.613 80.782,277.079 83.074,276.726 83.645 C 276.537 83.952,276.611 84.001,276.949 83.791 C 277.331 83.555,277.409 83.731,277.262 84.500 C 277.142 85.126,277.218 85.429,277.457 85.282 C 277.696 85.134,277.772 85.437,277.652 86.063 C 277.545 86.625,277.593 87.002,277.759 86.899 C 278.175 86.642,278.641 88.934,278.289 89.504 C 278.118 89.780,278.172 89.861,278.423 89.705 C 278.929 89.393,279.484 91.568,279.070 92.238 C 278.904 92.508,278.953 92.595,279.189 92.450 C 279.656 92.161,280.205 94.400,279.821 95.022 C 279.681 95.248,279.741 95.325,279.954 95.194 C 280.414 94.910,281.373 98.704,280.996 99.314 C 280.854 99.543,280.911 99.624,281.121 99.494 C 281.601 99.197,282.589 102.929,282.198 103.561 C 282.025 103.842,282.077 103.924,282.330 103.768 C 282.835 103.456,283.390 105.631,282.976 106.301 C 282.810 106.570,282.859 106.658,283.095 106.512 C 283.562 106.224,284.112 108.462,283.727 109.085 C 283.587 109.311,283.655 109.384,283.876 109.246 C 284.464 108.883,284.862 111.327,284.321 111.979 C 283.569 112.885,270.489 112.549,270.561 111.625 C 270.591 111.249,270.435 111.057,270.212 111.195 C 269.957 111.353,269.881 111.063,270.006 110.410 C 270.115 109.841,270.032 109.375,269.822 109.375 C 269.612 109.375,269.532 109.023,269.645 108.593 C 269.772 108.106,269.694 107.907,269.438 108.065 C 269.175 108.228,269.097 107.953,269.223 107.296 C 269.343 106.671,269.267 106.367,269.028 106.515 C 268.788 106.663,268.713 106.360,268.832 105.734 C 268.953 105.100,268.877 104.804,268.632 104.956 C 268.389 105.106,268.322 104.874,268.457 104.357 C 268.578 103.894,268.538 103.601,268.367 103.706 C 268.197 103.811,267.966 103.548,267.854 103.121 C 267.664 102.392,267.276 102.339,261.658 102.262 L 255.664 102.181 261.328 101.953 L 266.992 101.725 260.457 101.644 L 253.921 101.563 253.677 102.536 C 253.542 103.072,253.301 103.429,253.140 103.329 C 252.979 103.230,252.935 103.609,253.043 104.171 C 253.168 104.828,253.091 105.103,252.827 104.940 C 252.567 104.779,252.497 104.995,252.637 105.529 C 252.801 106.157,252.727 106.291,252.345 106.055 C 252.023 105.857,251.927 105.892,252.086 106.150 C 252.390 106.640,251.965 109.037,251.613 108.822 C 251.478 108.739,251.353 109.303,251.335 110.076 C 251.317 110.848,251.096 111.549,250.844 111.633 C 250.592 111.717,250.485 111.946,250.607 112.143 C 250.737 112.353,248.109 112.500,244.206 112.500 L 237.585 112.500 237.324 111.463 C 237.181 110.892,237.206 110.321,237.380 110.193 C 237.553 110.066,237.710 109.653,237.728 109.277 C 237.822 107.302,237.914 107.000,238.342 107.264 C 238.605 107.427,238.687 107.372,238.539 107.132 C 238.154 106.509,238.704 104.270,239.170 104.559 C 239.392 104.696,239.460 104.623,239.320 104.397 C 238.995 103.872,239.454 101.517,239.835 101.752 C 239.993 101.850,240.034 101.469,239.926 100.907 C 239.779 100.137,239.856 99.962,240.238 100.198 C 240.555 100.394,240.650 100.357,240.492 100.100 C 240.107 99.478,240.657 97.239,241.124 97.528 C 241.364 97.676,241.408 97.585,241.233 97.302 C 240.907 96.773,242.596 90.199,242.995 90.446 C 243.133 90.531,243.159 90.141,243.051 89.579 C 242.926 88.922,243.003 88.647,243.266 88.810 C 243.527 88.971,243.597 88.755,243.457 88.221 C 243.322 87.704,243.389 87.473,243.632 87.622 C 243.877 87.774,243.953 87.478,243.832 86.844 C 243.685 86.075,243.762 85.899,244.144 86.135 C 244.485 86.346,244.557 86.295,244.364 85.983 C 243.973 85.350,244.962 81.619,245.442 81.916 C 245.652 82.046,245.708 81.965,245.567 81.736 C 245.273 81.260,246.101 77.303,246.450 77.517 C 246.576 77.594,246.700 77.111,246.725 76.444 C 246.750 75.776,246.952 75.170,247.172 75.096 C 247.393 75.023,247.476 74.592,247.358 74.139 C 247.227 73.637,247.297 73.411,247.538 73.560 C 247.783 73.711,247.860 73.415,247.738 72.782 C 247.591 72.012,247.669 71.837,248.051 72.073 C 248.391 72.283,248.463 72.233,248.270 71.920 C 247.938 71.383,248.832 67.534,249.231 67.781 C 249.377 67.871,249.409 67.485,249.301 66.922 C 249.176 66.266,249.253 65.990,249.516 66.153 C 249.777 66.314,249.847 66.099,249.707 65.564 C 249.543 64.937,249.617 64.802,249.999 65.038 C 250.330 65.243,250.417 65.202,250.245 64.924 C 249.901 64.368,250.759 60.938,251.241 60.938 C 251.443 60.938,251.511 60.780,251.392 60.587 C 251.094 60.104,251.589 57.783,251.944 58.002 C 252.102 58.100,252.143 57.719,252.035 57.157 C 251.901 56.452,251.979 56.220,252.287 56.410 C 252.533 56.562,252.734 56.497,252.734 56.265 C 252.734 55.974,255.292 55.876,261.035 55.949 C 267.423 56.030,269.313 56.167,269.238 56.543 M309.729 56.115 C 311.708 56.255,313.107 56.507,312.837 56.674 C 312.566 56.841,313.110 56.875,314.045 56.750 C 315.141 56.603,315.658 56.661,315.501 56.915 C 315.351 57.158,315.650 57.234,316.281 57.113 C 316.926 56.990,317.212 57.067,317.054 57.321 C 316.917 57.543,317.023 57.716,317.289 57.707 C 318.626 57.659,319.167 57.845,318.908 58.263 C 318.732 58.549,318.801 58.608,319.097 58.425 C 320.418 57.609,326.784 64.709,325.946 66.064 C 325.754 66.375,325.829 66.423,326.173 66.210 C 326.555 65.974,326.629 66.108,326.465 66.736 C 326.325 67.271,326.395 67.486,326.656 67.325 C 326.919 67.162,326.996 67.438,326.871 68.094 C 326.753 68.713,326.828 69.023,327.062 68.878 C 327.298 68.732,327.380 69.109,327.272 69.846 C 327.174 70.509,327.238 70.964,327.414 70.855 C 327.590 70.746,327.734 72.172,327.734 74.023 C 327.734 75.875,327.595 77.304,327.425 77.199 C 327.255 77.094,327.190 77.635,327.279 78.401 C 327.403 79.461,327.322 79.720,326.942 79.485 C 326.622 79.287,326.538 79.332,326.709 79.609 C 327.098 80.238,326.555 82.073,326.070 81.773 C 325.829 81.624,325.777 81.708,325.944 81.978 C 326.462 82.816,323.310 87.318,322.539 86.842 C 322.322 86.708,322.260 86.784,322.400 87.011 C 322.540 87.238,322.097 87.778,321.414 88.210 C 320.731 88.642,320.146 89.354,320.114 89.792 C 320.082 90.230,320.188 90.506,320.351 90.406 C 320.770 90.147,321.202 91.697,320.863 92.244 C 320.701 92.507,320.752 92.594,320.982 92.452 C 321.467 92.152,323.159 96.378,322.792 96.972 C 322.641 97.216,322.721 97.272,322.987 97.108 C 323.409 96.846,323.597 97.408,323.538 98.757 C 323.526 99.039,323.618 99.168,323.743 99.043 C 324.086 98.700,325.035 101.189,324.742 101.663 C 324.582 101.922,324.680 101.956,325.006 101.754 C 325.385 101.520,325.454 101.614,325.266 102.105 C 325.124 102.474,325.170 102.676,325.367 102.554 C 325.831 102.267,326.308 103.761,325.941 104.354 C 325.781 104.614,325.830 104.704,326.057 104.563 C 326.528 104.272,327.822 107.354,327.468 107.927 C 327.333 108.145,327.403 108.212,327.624 108.076 C 328.292 107.663,329.471 111.233,328.896 111.927 C 327.164 114.013,312.964 112.250,314.284 110.113 C 314.468 109.817,314.408 109.747,314.123 109.924 C 313.704 110.182,313.518 109.641,313.566 108.305 C 313.576 108.039,313.428 107.917,313.237 108.035 C 312.919 108.231,312.741 107.568,312.785 106.352 C 312.795 106.086,312.617 105.983,312.390 106.123 C 312.130 106.284,312.072 106.130,312.234 105.708 C 312.387 105.310,312.334 105.134,312.105 105.276 C 311.753 105.494,311.568 104.871,311.613 103.617 C 311.623 103.351,311.475 103.230,311.284 103.348 C 310.966 103.544,310.788 102.881,310.832 101.664 C 310.841 101.398,310.706 101.269,310.531 101.377 C 310.096 101.646,309.647 100.117,309.996 99.553 C 310.164 99.280,310.107 99.203,309.854 99.359 C 309.342 99.676,308.820 98.238,309.215 97.599 C 309.383 97.327,309.326 97.250,309.073 97.406 C 308.561 97.723,308.039 96.285,308.434 95.646 C 308.608 95.363,308.544 95.297,308.263 95.471 C 307.845 95.729,307.659 95.188,307.707 93.852 C 307.716 93.586,307.581 93.456,307.406 93.565 C 307.231 93.673,306.975 93.407,306.838 92.974 C 306.622 92.293,306.251 92.188,304.082 92.188 L 301.576 92.188 301.471 102.246 L 301.367 112.305 294.531 112.411 L 287.695 112.518 287.797 97.177 C 287.865 86.898,287.771 82.029,287.510 82.422 C 287.177 82.924,287.120 82.910,287.115 82.324 C 287.112 81.948,287.297 81.641,287.526 81.641 C 288.005 81.641,287.849 78.615,287.326 77.768 C 287.105 77.411,287.134 77.313,287.408 77.482 C 288.002 77.849,288.044 59.445,287.451 58.730 C 287.210 58.439,287.153 57.912,287.323 57.525 C 287.488 57.146,287.588 56.616,287.544 56.348 C 287.457 55.802,303.025 55.639,309.729 56.115 M347.070 84.180 L 347.070 112.305 340.667 112.412 C 335.119 112.506,334.166 112.432,333.538 111.863 C 332.792 111.189,332.348 56.845,333.082 56.111 C 333.230 55.963,336.438 55.890,340.211 55.948 L 347.070 56.055 347.070 84.180 M72.363 56.530 C 72.954 56.619,73.921 56.619,74.512 56.530 C 75.103 56.440,74.619 56.367,73.438 56.367 C 72.256 56.367,71.772 56.440,72.363 56.530 M77.441 56.519 C 77.817 56.618,78.433 56.618,78.809 56.519 C 79.185 56.421,78.877 56.341,78.125 56.341 C 77.373 56.341,77.065 56.421,77.441 56.519 M183.301 56.543 C 188.188 56.605,196.187 56.605,201.074 56.543 C 205.962 56.481,201.963 56.430,192.188 56.430 C 182.412 56.430,178.413 56.481,183.301 56.543 M256.759 56.541 C 258.864 56.612,262.204 56.612,264.180 56.541 C 266.157 56.470,264.434 56.412,260.352 56.413 C 256.270 56.413,254.653 56.471,256.759 56.541 M293.066 56.542 C 295.806 56.609,300.288 56.609,303.027 56.542 C 305.767 56.475,303.525 56.420,298.047 56.420 C 292.568 56.420,290.327 56.475,293.066 56.542 M287.389 65.918 C 287.300 66.509,287.226 66.025,287.226 64.844 C 287.226 63.662,287.300 63.179,287.389 63.770 C 287.479 64.360,287.479 65.327,287.389 65.918 M148.047 67.607 C 148.047 67.772,147.527 68.021,146.891 68.160 C 145.649 68.433,143.359 70.739,143.359 71.716 C 143.359 72.044,143.228 72.230,143.066 72.131 C 142.700 71.904,142.684 72.130,142.304 82.874 C 142.133 87.741,142.124 91.642,142.285 91.542 C 142.543 91.382,142.707 92.850,142.738 95.576 C 142.743 96.044,142.885 96.341,143.053 96.237 C 143.336 96.062,143.507 96.772,143.465 97.945 C 143.455 98.211,143.604 98.333,143.794 98.215 C 143.985 98.097,144.163 98.187,144.189 98.414 C 144.216 98.642,144.260 99.004,144.287 99.219 C 144.314 99.434,144.512 99.630,144.727 99.656 C 144.941 99.681,145.464 99.945,145.888 100.242 C 146.311 100.538,146.981 100.781,147.376 100.781 C 147.770 100.781,148.012 100.913,147.912 101.074 C 147.812 101.235,148.576 101.367,149.609 101.367 C 150.643 101.367,151.389 101.208,151.269 101.013 C 151.148 100.818,151.429 100.757,151.893 100.879 C 152.438 101.021,152.644 100.951,152.476 100.678 C 152.311 100.413,152.454 100.349,152.861 100.505 C 153.216 100.642,153.464 100.624,153.413 100.467 C 153.362 100.309,153.723 99.748,154.214 99.219 C 154.706 98.690,155.208 97.860,155.330 97.374 C 155.452 96.888,155.665 96.560,155.803 96.645 C 155.942 96.731,156.076 96.334,156.101 95.763 C 156.127 95.193,156.265 91.563,156.410 87.695 C 156.554 83.828,156.742 80.089,156.828 79.386 C 156.930 78.558,156.840 78.197,156.574 78.361 C 156.303 78.529,156.211 78.014,156.304 76.845 C 156.382 75.871,156.290 75.171,156.100 75.288 C 155.910 75.406,155.834 74.959,155.932 74.295 C 156.029 73.631,155.965 73.177,155.789 73.286 C 155.503 73.463,155.315 72.539,155.363 71.196 C 155.373 70.929,155.251 70.792,155.093 70.889 C 154.935 70.987,154.578 70.642,154.299 70.122 C 153.779 69.150,151.751 67.969,150.602 67.969 C 150.245 67.969,150.055 67.805,150.179 67.604 C 150.303 67.403,149.874 67.254,149.226 67.273 C 148.577 67.291,148.047 67.441,148.047 67.607 M304.980 67.478 L 301.953 67.611 301.953 74.205 L 301.953 80.800 305.042 80.927 C 306.796 81.000,308.037 80.904,307.914 80.705 C 307.794 80.513,308.157 80.443,308.719 80.551 C 309.360 80.674,309.650 80.597,309.494 80.346 C 309.338 80.093,309.518 80.050,309.983 80.228 C 310.387 80.383,310.610 80.402,310.478 80.270 C 310.346 80.138,310.659 79.576,311.174 79.020 C 311.688 78.465,312.109 77.675,312.109 77.264 C 312.109 76.853,312.248 76.602,312.418 76.707 C 313.027 77.084,312.172 71.051,311.466 69.996 C 311.080 69.418,310.803 68.813,310.851 68.652 C 310.898 68.491,310.806 68.393,310.645 68.434 C 309.971 68.605,307.823 67.876,308.027 67.546 C 308.149 67.349,308.195 67.223,308.129 67.266 C 308.062 67.309,306.646 67.405,304.980 67.478 M75.494 67.858 C 76.087 67.948,76.966 67.946,77.447 67.853 C 77.927 67.760,77.441 67.687,76.367 67.690 C 75.293 67.693,74.900 67.769,75.494 67.858 M72.656 84.313 L 72.656 100.329 75.550 100.457 C 77.141 100.528,78.362 100.454,78.261 100.293 C 78.161 100.132,78.485 99.999,78.981 99.998 C 79.477 99.996,80.385 99.734,80.998 99.414 C 81.611 99.094,82.297 98.946,82.523 99.086 C 82.749 99.225,82.822 99.160,82.687 98.941 C 82.380 98.445,83.743 97.154,84.146 97.558 C 84.308 97.719,84.393 97.676,84.337 97.461 C 84.178 96.865,85.236 93.753,85.534 93.937 C 85.678 94.027,85.716 93.556,85.619 92.893 C 85.522 92.229,85.601 91.784,85.795 91.904 C 85.990 92.025,86.090 91.396,86.019 90.494 C 85.948 89.591,86.032 89.068,86.207 89.319 C 86.381 89.568,86.523 87.256,86.523 84.181 C 86.523 81.107,86.392 78.673,86.230 78.772 C 85.973 78.930,85.808 77.462,85.778 74.736 C 85.773 74.269,85.631 73.972,85.462 74.076 C 85.294 74.180,85.156 73.982,85.156 73.636 C 85.156 73.291,84.856 72.446,84.489 71.758 C 84.122 71.070,83.814 70.332,83.805 70.117 C 83.796 69.902,83.613 69.718,83.398 69.707 C 82.561 69.666,81.248 69.070,81.411 68.805 C 81.506 68.651,79.575 68.475,77.120 68.412 L 72.656 68.298 72.656 84.313 M260.351 76.175 C 260.198 76.871,259.922 77.245,259.673 77.091 C 259.427 76.939,259.368 77.016,259.529 77.277 C 259.935 77.934,259.367 80.510,258.881 80.210 C 258.630 80.055,258.591 80.149,258.780 80.454 C 259.131 81.023,258.228 85.218,257.810 84.959 C 257.659 84.866,257.623 85.250,257.730 85.812 C 257.850 86.438,257.774 86.741,257.535 86.593 C 257.296 86.446,257.220 86.749,257.340 87.375 C 257.465 88.031,257.388 88.306,257.124 88.143 C 256.865 87.983,256.793 88.193,256.928 88.711 C 257.054 89.193,256.918 89.676,256.599 89.878 C 256.266 90.088,257.801 90.222,260.547 90.222 C 263.018 90.222,264.829 90.089,264.572 89.926 C 264.011 89.569,263.163 86.028,263.456 85.265 C 263.583 84.932,263.493 84.830,263.220 84.999 C 262.918 85.186,262.839 84.949,262.973 84.251 C 263.080 83.690,263.023 83.180,262.847 83.119 C 262.671 83.058,262.477 82.393,262.416 81.641 C 262.355 80.889,262.157 80.165,261.976 80.033 C 261.795 79.901,261.619 79.084,261.585 78.218 C 261.551 77.351,261.366 76.739,261.174 76.856 C 260.982 76.973,260.913 76.604,261.022 76.035 C 261.297 74.597,260.669 74.729,260.351 76.175 M222.252 98.802 C 222.731 99.698,222.812 113.424,222.336 113.130 C 222.160 113.021,222.096 113.475,222.193 114.139 C 222.315 114.966,222.233 115.260,221.932 115.074 C 221.656 114.904,221.576 115.018,221.715 115.382 C 222.600 117.686,215.421 124.583,213.076 123.683 C 212.787 123.572,212.474 123.691,212.380 123.948 C 212.130 124.632,210.727 123.700,210.796 122.895 C 210.826 122.549,210.694 122.266,210.503 122.266 C 210.313 122.266,210.179 121.606,210.208 120.801 L 210.259 119.336 210.580 120.703 C 210.847 121.843,210.874 121.730,210.742 120.020 C 210.579 117.908,212.048 116.230,213.353 117.037 C 213.604 117.192,213.685 117.134,213.541 116.901 C 213.235 116.405,214.213 115.515,214.619 115.921 C 214.779 116.081,214.865 116.035,214.812 115.820 C 214.646 115.150,215.301 113.277,215.630 113.480 C 215.802 113.586,215.851 113.321,215.738 112.891 C 215.563 112.222,215.206 112.109,213.258 112.109 C 209.939 112.109,209.766 111.748,209.766 104.828 C 209.766 101.778,209.872 99.005,210.003 98.665 C 210.401 97.628,221.691 97.755,222.252 98.802 M287.394 105.762 C 287.310 106.567,287.241 105.908,287.241 104.297 C 287.241 102.686,287.310 102.026,287.394 102.832 C 287.478 103.638,287.478 104.956,287.394 105.762 " stroke="none" fill="#07355c" fill-rule="evenodd"></path><path id="path2" d="M47.759 56.140 C 48.353 56.229,49.232 56.227,49.712 56.134 C 50.193 56.042,49.707 55.968,48.633 55.971 C 47.559 55.974,47.166 56.050,47.759 56.140 M110.840 56.150 C 112.612 56.222,115.513 56.222,117.285 56.150 C 119.058 56.078,117.607 56.018,114.063 56.018 C 110.518 56.018,109.067 56.078,110.840 56.150 M336.621 56.150 C 338.394 56.222,341.294 56.222,343.066 56.150 C 344.839 56.078,343.389 56.018,339.844 56.018 C 336.299 56.018,334.849 56.078,336.621 56.150 M310.645 56.519 C 311.021 56.618,311.636 56.618,312.012 56.519 C 312.388 56.421,312.080 56.341,311.328 56.341 C 310.576 56.341,310.269 56.421,310.645 56.519 M332.992 73.242 C 332.992 82.695,333.043 86.507,333.105 81.712 C 333.167 76.917,333.167 69.182,333.105 64.524 C 333.043 59.866,332.992 63.789,332.992 73.242 M158.236 56.786 C 158.638 57.146,160.938 58.203,160.938 58.028 C 160.938 57.803,158.772 56.641,158.353 56.641 C 158.199 56.641,158.146 56.706,158.236 56.786 M51.357 84.375 C 51.357 99.521,51.405 105.718,51.465 98.145 C 51.524 90.571,51.524 78.179,51.465 70.605 C 51.405 63.032,51.357 69.229,51.357 84.375 M172.413 62.891 C 172.413 65.361,172.477 66.372,172.554 65.137 C 172.632 63.901,172.632 61.880,172.554 60.645 C 172.477 59.409,172.413 60.420,172.413 62.891 M133.573 61.230 L 132.227 62.695 133.691 61.349 C 134.497 60.609,135.156 59.950,135.156 59.884 C 135.156 59.586,134.826 59.867,133.573 61.230 M121.230 68.359 C 121.230 70.186,121.298 70.933,121.380 70.020 C 121.462 69.106,121.462 67.612,121.380 66.699 C 121.298 65.786,121.230 66.533,121.230 68.359 M302.832 67.472 C 303.638 67.556,304.956 67.556,305.762 67.472 C 306.567 67.388,305.908 67.319,304.297 67.319 C 302.686 67.319,302.026 67.388,302.832 67.472 M145.875 68.186 C 145.129 68.783,145.130 68.787,145.898 68.434 C 146.328 68.236,146.943 67.977,147.266 67.857 C 147.772 67.669,147.769 67.636,147.243 67.609 C 146.908 67.592,146.292 67.851,145.875 68.186 M199.089 68.229 C 198.945 68.372,198.828 78.300,198.828 90.290 L 198.828 112.091 192.187 112.212 L 185.546 112.333 192.285 112.319 L 199.023 112.305 199.219 90.137 C 199.326 77.944,199.399 67.969,199.382 67.969 C 199.364 67.969,199.232 68.086,199.089 68.229 M301.650 74.512 L 301.563 81.250 304.590 81.172 L 307.617 81.095 304.795 80.960 L 301.972 80.826 301.855 74.299 L 301.738 67.773 301.650 74.512 M72.359 84.668 L 72.266 100.781 75.098 100.705 L 77.930 100.628 75.297 100.492 L 72.665 100.355 72.558 84.455 L 72.452 68.555 72.359 84.668 M327.475 73.828 C 327.475 75.439,327.544 76.099,327.628 75.293 C 327.713 74.487,327.713 73.169,327.628 72.363 C 327.544 71.558,327.475 72.217,327.475 73.828 M312.621 74.414 C 312.623 75.703,312.696 76.183,312.783 75.481 C 312.870 74.779,312.868 73.725,312.779 73.138 C 312.690 72.551,312.619 73.125,312.621 74.414 M121.211 76.172 C 121.211 77.354,121.284 77.837,121.374 77.246 C 121.463 76.655,121.463 75.688,121.374 75.098 C 121.284 74.507,121.211 74.990,121.211 76.172 M170.815 77.148 C 170.818 78.223,170.894 78.616,170.983 78.022 C 171.073 77.428,171.071 76.549,170.978 76.069 C 170.885 75.588,170.812 76.074,170.815 77.148 M101.330 83.008 C 101.330 86.445,101.390 87.799,101.463 86.017 C 101.535 84.234,101.535 81.421,101.462 79.767 C 101.389 78.112,101.330 79.570,101.330 83.008 M141.958 83.789 C 141.959 87.656,142.017 89.185,142.088 87.187 C 142.159 85.189,142.159 82.025,142.087 80.156 C 142.016 78.287,141.958 79.922,141.958 83.789 M126.680 80.078 C 126.680 81.260,126.753 81.743,126.842 81.152 C 126.932 80.562,126.932 79.595,126.842 79.004 C 126.753 78.413,126.680 78.896,126.680 80.078 M86.479 83.594 C 86.479 86.279,86.541 87.378,86.617 86.035 C 86.694 84.692,86.694 82.495,86.617 81.152 C 86.541 79.810,86.479 80.908,86.479 83.594 M156.796 84.766 C 156.796 87.881,156.857 89.155,156.931 87.598 C 157.005 86.040,157.005 83.491,156.931 81.934 C 156.857 80.376,156.796 81.650,156.796 84.766 M121.219 83.984 C 121.219 85.381,121.290 85.952,121.376 85.254 C 121.463 84.556,121.463 83.413,121.376 82.715 C 121.290 82.017,121.219 82.588,121.219 83.984 M126.680 86.719 C 126.680 87.900,126.753 88.384,126.842 87.793 C 126.932 87.202,126.932 86.235,126.842 85.645 C 126.753 85.054,126.680 85.537,126.680 86.719 M121.211 88.672 C 121.211 89.854,121.284 90.337,121.374 89.746 C 121.463 89.155,121.463 88.188,121.374 87.598 C 121.284 87.007,121.211 87.490,121.211 88.672 M170.810 91.797 C 170.810 92.764,170.886 93.159,170.979 92.676 C 171.072 92.192,171.072 91.401,170.979 90.918 C 170.886 90.435,170.810 90.830,170.810 91.797 M258.301 90.523 C 259.536 90.601,261.558 90.601,262.793 90.523 C 264.028 90.446,263.018 90.382,260.547 90.382 C 258.076 90.382,257.065 90.446,258.301 90.523 M127.044 91.797 C 127.044 92.549,127.124 92.856,127.222 92.480 C 127.321 92.104,127.321 91.489,127.222 91.113 C 127.124 90.737,127.044 91.045,127.044 91.797 M332.962 95.117 C 332.962 97.695,333.026 98.699,333.102 97.348 C 333.179 95.997,333.178 93.887,333.101 92.660 C 333.023 91.434,332.961 92.539,332.962 95.117 M156.356 92.969 C 156.356 93.936,156.433 94.331,156.526 93.848 C 156.619 93.364,156.619 92.573,156.526 92.090 C 156.433 91.606,156.356 92.002,156.356 92.969 M301.263 101.855 L 301.353 111.914 301.465 102.019 L 301.576 92.124 304.268 92.253 C 305.748 92.325,306.877 92.251,306.777 92.090 C 306.677 91.929,305.374 91.797,303.883 91.797 L 301.172 91.797 301.263 101.855 M212.500 98.307 C 216.694 98.591,221.788 98.609,221.621 98.340 C 221.520 98.179,219.032 98.079,216.090 98.117 C 213.149 98.156,211.533 98.241,212.500 98.307 M121.252 105.664 C 121.252 109.102,121.312 110.456,121.385 108.673 C 121.457 106.890,121.457 104.078,121.384 102.423 C 121.311 100.768,121.251 102.227,121.252 105.664 M222.425 106.055 C 222.425 109.707,222.484 111.254,222.556 109.492 C 222.628 107.730,222.629 104.742,222.557 102.851 C 222.485 100.961,222.426 102.402,222.425 106.055 M332.885 105.739 C 332.845 108.788,332.944 111.364,333.105 111.464 C 333.267 111.565,333.352 109.949,333.295 107.874 C 333.103 100.913,332.958 100.154,332.885 105.739 M148.926 101.441 C 149.302 101.539,149.917 101.539,150.293 101.441 C 150.669 101.343,150.361 101.263,149.609 101.263 C 148.857 101.263,148.550 101.343,148.926 101.441 M134.180 107.813 C 135.019 108.672,135.793 109.375,135.901 109.375 C 136.008 109.375,135.409 108.672,134.570 107.813 C 133.731 106.953,132.957 106.250,132.849 106.250 C 132.742 106.250,133.341 106.953,134.180 107.813 M210.896 111.836 C 211.069 112.007,212.423 112.093,213.906 112.027 L 216.602 111.906 213.592 111.715 C 211.937 111.610,210.724 111.664,210.896 111.836 M41.309 112.400 C 43.081 112.472,45.981 112.472,47.754 112.400 C 49.526 112.328,48.076 112.268,44.531 112.268 C 40.986 112.268,39.536 112.328,41.309 112.400 M64.746 112.401 C 67.808 112.467,72.817 112.467,75.879 112.401 C 78.940 112.335,76.436 112.281,70.313 112.281 C 64.189 112.281,61.685 112.335,64.746 112.401 M111.445 112.401 C 113.335 112.472,116.324 112.472,118.086 112.400 C 119.847 112.327,118.301 112.269,114.648 112.269 C 110.996 112.270,109.555 112.329,111.445 112.401 M240.742 112.401 C 242.632 112.472,245.621 112.472,247.382 112.400 C 249.144 112.327,247.598 112.269,243.945 112.269 C 240.293 112.270,238.851 112.329,240.742 112.401 M274.121 112.400 C 275.894 112.472,278.794 112.472,280.566 112.400 C 282.339 112.328,280.889 112.268,277.344 112.268 C 273.799 112.268,272.349 112.328,274.121 112.400 M291.309 112.400 C 293.081 112.472,295.981 112.472,297.754 112.400 C 299.526 112.328,298.076 112.268,294.531 112.268 C 290.986 112.268,289.536 112.328,291.309 112.400 M319.647 112.400 C 321.322 112.473,323.958 112.473,325.506 112.399 C 327.054 112.325,325.684 112.265,322.461 112.266 C 319.238 112.266,317.972 112.327,319.647 112.400 M337.598 112.396 C 338.618 112.477,340.288 112.477,341.309 112.396 C 342.329 112.316,341.494 112.250,339.453 112.250 C 337.412 112.250,336.577 112.316,337.598 112.396 M344.043 112.385 C 344.526 112.478,345.317 112.478,345.801 112.385 C 346.284 112.292,345.889 112.216,344.922 112.216 C 343.955 112.216,343.560 112.292,344.043 112.385 " stroke="none" fill="#04081e" fill-rule="evenodd"></path><path id="path3" d="M147.956 55.361 C 148.658 55.448,149.713 55.446,150.300 55.357 C 150.887 55.268,150.313 55.197,149.023 55.199 C 147.734 55.201,147.254 55.274,147.956 55.361 M40.723 56.541 C 42.603 56.612,45.679 56.612,47.559 56.541 C 49.438 56.469,47.900 56.411,44.141 56.411 C 40.381 56.411,38.843 56.469,40.723 56.541 M61.244 56.538 C 62.379 56.618,64.137 56.617,65.150 56.537 C 66.163 56.456,65.234 56.392,63.086 56.393 C 60.938 56.394,60.108 56.459,61.244 56.538 M111.444 56.541 C 113.118 56.614,115.755 56.614,117.303 56.540 C 118.851 56.466,117.480 56.406,114.258 56.406 C 111.035 56.407,109.769 56.467,111.444 56.541 M58.388 84.375 C 58.388 99.092,58.436 105.112,58.496 97.754 C 58.555 90.396,58.555 78.354,58.496 70.996 C 58.436 63.638,58.388 69.658,58.388 84.375 M210.295 63.867 C 210.294 65.801,210.360 66.641,210.442 65.734 C 210.524 64.828,210.525 63.246,210.444 62.219 C 210.363 61.192,210.296 61.934,210.295 63.867 M72.754 67.847 C 73.130 67.946,73.745 67.946,74.121 67.847 C 74.497 67.749,74.189 67.669,73.438 67.669 C 72.686 67.669,72.378 67.749,72.754 67.847 M170.856 84.766 C 170.856 87.666,170.918 88.853,170.993 87.402 C 171.068 85.952,171.068 83.579,170.993 82.129 C 170.918 80.679,170.856 81.865,170.856 84.766 M210.307 104.297 C 210.307 106.982,210.369 108.081,210.445 106.738 C 210.522 105.396,210.522 103.198,210.445 101.855 C 210.369 100.513,210.307 101.611,210.307 104.297 M315.185 111.826 C 315.352 111.993,318.463 112.080,322.100 112.020 L 328.711 111.912 321.796 111.718 C 317.993 111.611,315.018 111.660,315.185 111.826 M79.785 111.988 C 80.161 112.086,80.776 112.086,81.152 111.988 C 81.528 111.890,81.221 111.809,80.469 111.809 C 79.717 111.809,79.409 111.890,79.785 111.988 M291.113 112.010 C 292.993 112.081,296.069 112.081,297.949 112.010 C 299.829 111.938,298.291 111.879,294.531 111.879 C 290.771 111.879,289.233 111.938,291.113 112.010 M337.226 112.010 C 339.117 112.082,342.105 112.081,343.867 112.009 C 345.629 111.937,344.082 111.878,340.430 111.879 C 336.777 111.879,335.336 111.938,337.226 112.010 " stroke="none" fill="#607581" fill-rule="evenodd"></path><path id="path4" d="M149.516 54.964 C 150.002 55.057,150.705 55.054,151.079 54.956 C 151.452 54.858,151.055 54.782,150.195 54.786 C 149.336 54.790,149.030 54.870,149.516 54.964 M37.155 56.391 C 36.834 56.777,36.742 64.326,36.816 84.028 L 36.919 111.133 37.014 83.874 L 37.109 56.615 37.988 56.262 C 38.583 56.023,38.662 55.901,38.231 55.884 C 37.882 55.871,37.397 56.099,37.155 56.391 M41.119 56.140 C 41.712 56.229,42.591 56.227,43.072 56.134 C 43.552 56.042,43.066 55.968,41.992 55.971 C 40.918 55.974,40.525 56.050,41.119 56.140 M60.938 56.123 C 65.981 56.394,80.359 56.421,79.945 56.158 C 79.696 56.000,74.834 55.902,69.141 55.939 C 63.447 55.977,59.756 56.059,60.938 56.123 M191.176 56.152 C 205.027 56.232,209.651 56.376,210.121 56.742 C 210.670 57.171,210.680 57.148,210.206 56.543 C 209.707 55.907,208.394 55.866,191.261 55.953 L 172.852 56.047 191.176 56.152 M252.784 56.039 C 253.051 56.306,267.997 56.352,268.262 56.087 C 268.387 55.962,264.915 55.859,260.547 55.859 C 256.178 55.859,252.685 55.940,252.784 56.039 M287.500 56.152 C 287.501 56.313,292.406 56.445,298.401 56.445 C 304.397 56.445,309.099 56.316,308.850 56.158 C 308.254 55.779,287.500 55.774,287.500 56.152 M346.384 56.144 C 346.761 56.411,346.893 62.575,346.974 83.810 L 347.078 111.133 347.074 83.626 C 347.071 59.510,346.998 56.100,346.484 55.960 C 346.053 55.842,346.027 55.891,346.384 56.144 M82.755 56.740 C 82.952 56.936,83.529 57.032,84.037 56.952 C 84.819 56.829,84.764 56.774,83.679 56.594 C 82.903 56.466,82.538 56.523,82.755 56.740 M172.356 57.422 C 172.356 58.174,172.437 58.481,172.535 58.105 C 172.633 57.729,172.633 57.114,172.535 56.738 C 172.437 56.362,172.356 56.670,172.356 57.422 M57.957 60.938 C 57.957 63.193,58.022 64.116,58.100 62.988 C 58.179 61.860,58.179 60.015,58.100 58.887 C 58.022 57.759,57.957 58.682,57.957 60.938 M106.731 84.082 C 106.681 99.067,106.772 111.328,106.934 111.328 C 107.199 111.328,107.196 91.998,106.926 66.602 C 106.869 61.230,106.781 69.097,106.731 84.082 M287.379 57.324 C 287.135 57.753,287.123 60.273,287.366 60.030 C 287.605 59.791,287.902 57.031,287.689 57.031 C 287.610 57.031,287.471 57.163,287.379 57.324 M210.447 60.938 C 210.560 62.334,210.717 63.550,210.795 63.639 C 211.083 63.968,210.872 59.935,210.562 59.180 C 210.374 58.721,210.326 59.447,210.447 60.938 M287.226 64.844 C 287.226 66.025,287.300 66.509,287.389 65.918 C 287.479 65.327,287.479 64.360,287.389 63.770 C 287.300 63.179,287.226 63.662,287.226 64.844 M57.907 88.123 L 57.813 111.207 58.691 111.951 C 59.569 112.694,59.569 112.694,58.890 111.887 C 58.263 111.141,58.201 109.281,58.105 88.059 L 58.001 65.039 57.907 88.123 M205.078 67.969 L 199.414 68.197 204.957 68.278 C 208.322 68.327,210.596 68.206,210.742 67.969 C 210.875 67.754,210.929 67.615,210.863 67.659 C 210.797 67.704,208.193 67.843,205.078 67.969 M72.520 68.262 C 72.420 68.423,73.333 68.505,74.548 68.444 C 78.363 68.254,78.824 68.088,75.707 68.027 C 74.054 67.995,72.620 68.101,72.520 68.262 M176.871 68.258 C 178.222 68.335,180.331 68.334,181.558 68.257 C 182.785 68.180,181.680 68.117,179.102 68.118 C 176.523 68.119,175.520 68.182,176.871 68.258 M184.254 69.772 C 184.511 72.417,184.699 72.786,184.729 70.703 C 184.742 69.736,184.599 68.702,184.411 68.404 C 184.200 68.071,184.140 68.596,184.254 69.772 M100.065 71.114 C 100.294 71.769,100.553 72.233,100.642 72.144 C 100.835 71.951,100.098 69.922,99.835 69.922 C 99.733 69.922,99.837 70.458,100.065 71.114 M184.520 76.563 C 184.520 78.818,184.584 79.741,184.663 78.613 C 184.742 77.485,184.742 75.640,184.663 74.512 C 184.584 73.384,184.520 74.307,184.520 76.563 M184.487 82.617 C 184.490 83.691,184.566 84.084,184.655 83.491 C 184.745 82.897,184.743 82.018,184.650 81.538 C 184.557 81.057,184.484 81.543,184.487 82.617 M126.661 83.398 C 126.665 84.258,126.745 84.563,126.839 84.077 C 126.932 83.592,126.929 82.888,126.831 82.515 C 126.733 82.142,126.657 82.539,126.661 83.398 M184.492 89.063 C 184.492 90.244,184.565 90.728,184.655 90.137 C 184.744 89.546,184.744 88.579,184.655 87.988 C 184.565 87.397,184.492 87.881,184.492 89.063 M184.487 93.164 C 184.490 94.238,184.566 94.631,184.655 94.038 C 184.745 93.444,184.743 92.565,184.650 92.084 C 184.557 91.604,184.484 92.090,184.487 93.164 M83.010 98.044 C 82.620 98.475,82.482 98.828,82.704 98.828 C 83.196 98.828,84.170 97.712,83.907 97.449 C 83.804 97.346,83.400 97.613,83.010 98.044 M210.003 98.665 C 209.665 99.545,209.720 110.260,210.065 110.805 C 210.222 111.054,210.295 108.538,210.226 105.214 C 210.137 100.941,210.237 99.006,210.567 98.609 C 210.845 98.274,210.873 98.047,210.636 98.047 C 210.418 98.047,210.133 98.325,210.003 98.665 M184.466 100.781 C 184.466 101.533,184.546 101.841,184.644 101.465 C 184.743 101.089,184.743 100.474,184.644 100.098 C 184.546 99.722,184.466 100.029,184.466 100.781 M287.241 104.297 C 287.241 105.908,287.310 106.567,287.394 105.762 C 287.478 104.956,287.478 103.638,287.394 102.832 C 287.310 102.026,287.241 102.686,287.241 104.297 M257.227 102.208 C 260.883 102.485,268.252 102.516,267.836 102.252 C 267.587 102.094,264.746 101.993,261.523 102.027 C 258.301 102.062,256.367 102.143,257.227 102.208 M268.182 104.004 C 268.328 104.487,268.608 105.055,268.805 105.265 C 269.001 105.474,268.964 105.079,268.722 104.386 C 268.228 102.967,267.771 102.644,268.182 104.004 M184.492 108.203 C 184.492 109.385,184.565 109.868,184.655 109.277 C 184.744 108.687,184.744 107.720,184.655 107.129 C 184.565 106.538,184.492 107.021,184.492 108.203 M333.927 112.208 C 334.124 112.405,334.701 112.501,335.209 112.421 C 335.991 112.298,335.936 112.243,334.851 112.063 C 334.075 111.934,333.710 111.992,333.927 112.208 M211.230 117.609 C 210.854 117.828,210.561 118.306,210.578 118.672 C 210.603 119.213,210.651 119.228,210.836 118.750 C 210.962 118.428,211.343 117.950,211.684 117.688 C 212.439 117.109,212.169 117.063,211.230 117.609 M210.156 120.898 C 210.156 121.650,210.297 122.266,210.468 122.266 C 210.640 122.266,210.709 121.650,210.621 120.898 C 210.533 120.146,210.393 119.531,210.309 119.531 C 210.225 119.531,210.156 120.146,210.156 120.898 M210.559 122.901 C 210.541 123.546,211.612 124.325,212.194 124.091 C 212.517 123.961,212.459 123.879,212.031 123.859 C 211.666 123.842,211.188 123.521,210.969 123.145 C 210.750 122.769,210.565 122.659,210.559 122.901 " stroke="none" fill="#040f33" fill-rule="evenodd"></path></g></svg>